<?xml version="1.0" encoding="iso-8859-1"?>
<!-- Generator: Adobe Illustrator 19.0.0, SVG Export Plug-In . SVG Version: 6.00 Build 0)  -->
<svg xmlns="http://www.w3.org/2000/svg" xmlns:xlink="http://www.w3.org/1999/xlink" version="1.1" id="Capa_1" x="0px" y="0px" viewBox="0 0 511.998 511.998" style="enable-background:new 0 0 511.998 511.998;" xml:space="preserve" width="512px" height="512px">
<g>
	<g>
		<g>
			<path d="M443.732,435.202h-8.533v-8.533c0-4.71-3.814-8.533-8.533-8.533s-8.533,3.823-8.533,8.533v8.533h-8.533     c-4.719,0-8.533,3.823-8.533,8.533s3.814,8.533,8.533,8.533h8.533v8.533c0,4.71,3.814,8.533,8.533,8.533s8.533-3.823,8.533-8.533     v-8.533h8.533c4.719,0,8.533-3.823,8.533-8.533S448.451,435.202,443.732,435.202z" fill="#e5005d"/>
			<path d="M412.099,48.702c1.664,1.664,3.849,2.5,6.033,2.5c2.185,0,4.369-0.836,6.033-2.5l11.034-11.034l11.034,11.034     c1.664,1.664,3.849,2.5,6.033,2.5c2.185,0,4.369-0.836,6.033-2.5c3.337-3.336,3.337-8.73,0-12.066l-11.034-11.034l11.034-11.034     c3.337-3.337,3.337-8.73,0-12.066c-3.336-3.336-8.73-3.336-12.066,0l-11.034,11.034L424.165,2.502     c-3.337-3.336-8.73-3.336-12.066,0c-3.337,3.337-3.337,8.73,0,12.066l11.034,11.034l-11.034,11.034     C408.762,39.972,408.762,45.365,412.099,48.702z" fill="#e5005d"/>
			<path d="M349.865,136.535c0,4.71,3.814,8.533,8.533,8.533s8.533-3.823,8.533-8.533s-3.814-8.533-8.533-8.533     S349.865,131.825,349.865,136.535z" fill="#e5005d"/>
			<path d="M281.599,85.335c4.719,0,8.533-3.823,8.533-8.533s-3.814-8.533-8.533-8.533s-8.533,3.823-8.533,8.533     S276.88,85.335,281.599,85.335z" fill="#e5005d"/>
			<path d="M435.199,204.802c0,4.71,3.814,8.533,8.533,8.533s8.533-3.823,8.533-8.533c0-4.71-3.814-8.533-8.533-8.533     S435.199,200.092,435.199,204.802z" fill="#e5005d"/>
			<path d="M358.399,238.935c0,4.71,3.814,8.533,8.533,8.533s8.533-3.823,8.533-8.533s-3.814-8.533-8.533-8.533     S358.399,234.225,358.399,238.935z" fill="#e5005d"/>
			<path d="M494.932,68.269c-4.719,0-8.533,3.823-8.533,8.533s3.814,8.533,8.533,8.533s8.533-3.823,8.533-8.533     S499.651,68.269,494.932,68.269z" fill="#e5005d"/>
			<path d="M477.865,136.535c-89.014,0-161.366,85.432-175.201,102.862l-33.113-33.113c37.027-24.942,45.381-48.901,45.737-49.985     c1.485-4.437-0.896-9.199-5.325-10.726c-4.429-1.51-9.267,0.836-10.829,5.248c-0.081,0.227-7.831,21.069-41.901,43.147     l-30.409-30.409c15.955-18.781,20.64-70.578,20.64-103.823c0-4.71-3.814-8.533-8.533-8.533s-8.533,3.823-8.533,8.533     c0,51.452-9.233,84.143-15.253,92.143l-29.914-29.914c-1.997-1.997-4.855-2.867-7.629-2.347c-2.79,0.538-5.12,2.406-6.238,5     L82.647,330.07c-0.014,0.033-0.03,0.066-0.043,0.1L9.232,500.085c-1.382,3.208-0.674,6.946,1.801,9.412     c1.63,1.638,3.814,2.5,6.033,2.5c1.143,0,2.295-0.222,3.388-0.7l119.297-51.516c0.091-0.036,0.18-0.078,0.271-0.117     l50.318-21.729c0.065-0.026,0.128-0.055,0.191-0.083l76.753-33.144c0.072-0.028,0.142-0.061,0.213-0.092l50.336-21.736     c0.104-0.041,0.205-0.088,0.308-0.133l77.773-33.585c2.594-1.118,4.471-3.447,5.001-6.229c0.529-2.773-0.35-5.632-2.347-7.637     l-39.285-39.285c5.615-9.07,37.981-22.944,92.986-22.944c4.719,0,8.533-3.823,8.533-8.533c0-4.71-3.814-8.533-8.533-8.533     c-44.464,0-89.365,9.535-105.072,27.924l-32.369-32.369c8.218-10.484,79.35-97.955,163.041-97.955     c4.719,0,8.533-3.823,8.533-8.533C486.399,140.358,482.584,136.535,477.865,136.535z M266.066,386.649L133.885,254.46     l14.558-33.714l151.343,151.343L266.066,386.649z M189.115,419.877l-88.461-88.461l25.953-60.102l122.605,122.612     L189.115,419.877z M138.547,441.713l-59.729-59.729l14.558-33.713l78.885,78.885L138.547,441.713z M71.539,398.838l50.153,50.153     l-88.269,38.115L71.539,398.838z M316.64,364.811L155.721,203.892l26.328-60.969l25.246,25.245c0,0,0.001,0.001,0.001,0.001     l42.788,42.786c0.005,0.005,0.011,0.011,0.016,0.016l93.669,93.665c0.042,0.043,0.084,0.084,0.126,0.126l33.72,33.719     L316.64,364.811z" fill="#e5005d"/>
			<path d="M324.188,127.965h0.077c4.651,0,8.448-3.763,8.533-8.422c0.017-1.212,0.947-29.943,38.528-52.489     c4.036-2.423,5.35-7.671,2.918-11.708c-2.423-4.045-7.663-5.359-11.708-2.927c-46.268,27.767-46.805,65.459-46.805,67.046     C315.732,124.15,319.504,127.922,324.188,127.965z" fill="#e5005d"/>
			<path d="M17.066,51.202c14.114,0,25.6,11.486,25.6,25.6c0,4.71,3.814,8.533,8.533,8.533s8.533-3.823,8.533-8.533     c0-14.114,11.486-25.6,25.6-25.6c4.719,0,8.533-3.823,8.533-8.533c0-4.71-3.814-8.533-8.533-8.533     c-14.114,0-25.6-11.486-25.6-25.6c0-4.71-3.814-8.533-8.533-8.533s-8.533,3.823-8.533,8.533c0,14.114-11.486,25.6-25.6,25.6     c-4.719,0-8.533,3.823-8.533,8.533C8.533,47.379,12.347,51.202,17.066,51.202z M51.199,34.11     c2.432,3.234,5.316,6.127,8.559,8.559c-3.243,2.432-6.127,5.325-8.559,8.559c-2.432-3.234-5.316-6.127-8.559-8.559     C45.883,40.237,48.767,37.344,51.199,34.11z" fill="#e5005d"/>
		</g>
	</g>
</g>
<g>
</g>
<g>
</g>
<g>
</g>
<g>
</g>
<g>
</g>
<g>
</g>
<g>
</g>
<g>
</g>
<g>
</g>
<g>
</g>
<g>
</g>
<g>
</g>
<g>
</g>
<g>
</g>
<g>
</g>
</svg>
