<?xml version="1.0" encoding="iso-8859-1"?>
<!-- Generator: Adobe Illustrator 18.0.0, SVG Export Plug-In . SVG Version: 6.00 Build 0)  -->
<!DOCTYPE svg PUBLIC "-//W3C//DTD SVG 1.1//EN" "http://www.w3.org/Graphics/SVG/1.1/DTD/svg11.dtd">
<svg xmlns="http://www.w3.org/2000/svg" xmlns:xlink="http://www.w3.org/1999/xlink" version="1.1" id="Capa_1" x="0px" y="0px" viewBox="0 0 428 428" style="enable-background:new 0 0 428 428;" xml:space="preserve" width="512px" height="512px">
<g>
	<path d="M29.5,111.367h236c3.037,0,5.5-2.462,5.5-5.5s-2.463-5.5-5.5-5.5h-236c-3.037,0-5.5,2.462-5.5,5.5   S26.463,111.367,29.5,111.367z" fill="#e5005d"/>
	<path d="M29.5,164.367h55c3.037,0,5.5-2.462,5.5-5.5s-2.463-5.5-5.5-5.5h-55c-3.037,0-5.5,2.462-5.5,5.5   S26.463,164.367,29.5,164.367z" fill="#e5005d"/>
	<path d="M29.5,217.367h22c3.037,0,5.5-2.462,5.5-5.5s-2.463-5.5-5.5-5.5h-22c-3.037,0-5.5,2.462-5.5,5.5   S26.463,217.367,29.5,217.367z" fill="#e5005d"/>
	<path d="M422.5,118.367H330v-85.5c0-3.038-2.463-5.5-5.5-5.5H5.5c-3.037,0-5.5,2.462-5.5,5.5v271.27c0,3.038,2.463,5.5,5.5,5.5H98   v85.496c0,3.038,2.463,5.5,5.5,5.5h319c3.037,0,5.5-2.462,5.5-5.5V123.867C428,120.83,425.537,118.367,422.5,118.367z M417,157.367   H109v-28h308V157.367z M319,38.367v28H11v-28H319z M11,298.637V77.367h308v41H103.5c-3.037,0-5.5,2.462-5.5,5.5v3H29.5   c-3.037,0-5.5,2.462-5.5,5.5s2.463,5.5,5.5,5.5H98v42H29.5c-3.037,0-5.5,2.462-5.5,5.5s2.463,5.5,5.5,5.5H98v42H29.5   c-3.037,0-5.5,2.462-5.5,5.5s2.463,5.5,5.5,5.5H98v15.5H29.5c-3.037,0-5.5,2.462-5.5,5.5s2.463,5.5,5.5,5.5H98v28.27H11z    M109,389.633V168.367h308v221.266H109z" fill="#e5005d"/>
	<path d="M127.5,202.367h143c3.037,0,5.5-2.462,5.5-5.5s-2.463-5.5-5.5-5.5h-143c-3.037,0-5.5,2.462-5.5,5.5   S124.463,202.367,127.5,202.367z" fill="#e5005d"/>
	<path d="M127.5,228.867h189c3.037,0,5.5-2.462,5.5-5.5s-2.463-5.5-5.5-5.5h-189c-3.037,0-5.5,2.462-5.5,5.5   S124.463,228.867,127.5,228.867z" fill="#e5005d"/>
	<path d="M127.5,255.367h236c3.037,0,5.5-2.462,5.5-5.5s-2.463-5.5-5.5-5.5h-236c-3.037,0-5.5,2.462-5.5,5.5   S124.463,255.367,127.5,255.367z" fill="#e5005d"/>
	<path d="M389.5,297.367h-262c-3.037,0-5.5,2.462-5.5,5.5s2.463,5.5,5.5,5.5h262c3.037,0,5.5-2.462,5.5-5.5   S392.537,297.367,389.5,297.367z" fill="#e5005d"/>
	<path d="M127.5,281.867h138c3.037,0,5.5-2.462,5.5-5.5s-2.463-5.5-5.5-5.5h-138c-3.037,0-5.5,2.462-5.5,5.5   S124.463,281.867,127.5,281.867z" fill="#e5005d"/>
	<path d="M127.5,334.867h208c3.037,0,5.5-2.462,5.5-5.5s-2.463-5.5-5.5-5.5h-208c-3.037,0-5.5,2.462-5.5,5.5   S124.463,334.867,127.5,334.867z" fill="#e5005d"/>
	<path d="M363.5,350.367h-236c-3.037,0-5.5,2.462-5.5,5.5s2.463,5.5,5.5,5.5h236c3.037,0,5.5-2.462,5.5-5.5   S366.537,350.367,363.5,350.367z" fill="#e5005d"/>
	<circle cx="30.5" cy="52.367" r="6.531" fill="#e5005d"/>
	<circle cx="51.346" cy="52.367" r="6.531" fill="#e5005d"/>
	<circle cx="72.191" cy="52.367" r="6.531" fill="#e5005d"/>
	<circle cx="130.808" cy="143.367" r="6.531" fill="#e5005d"/>
	<circle cx="151.654" cy="143.367" r="6.531" fill="#e5005d"/>
	<circle cx="172.5" cy="143.367" r="6.531" fill="#e5005d"/>
</g>
<g>
</g>
<g>
</g>
<g>
</g>
<g>
</g>
<g>
</g>
<g>
</g>
<g>
</g>
<g>
</g>
<g>
</g>
<g>
</g>
<g>
</g>
<g>
</g>
<g>
</g>
<g>
</g>
<g>
</g>
</svg>
